<svg xmlns="http://www.w3.org/2000/svg" xmlns:xlink="http://www.w3.org/1999/xlink" width="1080" zoomAndPan="magnify" viewBox="0 0 810 809.999993" height="1080" preserveAspectRatio="xMidYMid meet" version="1.0"><defs><g/></defs><g fill="#ffffff" fill-opacity="1"><g transform="translate(302.668935, 416.72499)"><g><path d="M 22.875 0.3125 C 20.019531 0.3125 17.320312 -0.265625 14.78125 -1.421875 C 12.238281 -2.578125 10.003906 -4.175781 8.078125 -6.21875 C 6.160156 -8.269531 4.664062 -10.660156 3.59375 -13.390625 C 2.519531 -16.117188 1.984375 -19.078125 1.984375 -22.265625 C 1.984375 -25.273438 2.519531 -28.113281 3.59375 -30.78125 C 4.664062 -33.445312 6.171875 -35.789062 8.109375 -37.8125 C 10.054688 -39.84375 12.332031 -41.4375 14.9375 -42.59375 C 17.539062 -43.75 20.375 -44.328125 23.4375 -44.328125 C 27.570312 -44.328125 31.113281 -43.445312 34.0625 -41.6875 C 37.019531 -39.9375 39.242188 -37.613281 40.734375 -34.71875 L 34.34375 -30.015625 C 33.226562 -32.203125 31.664062 -33.875 29.65625 -35.03125 C 27.65625 -36.1875 25.476562 -36.765625 23.125 -36.765625 C 21.269531 -36.765625 19.578125 -36.367188 18.046875 -35.578125 C 16.515625 -34.796875 15.191406 -33.722656 14.078125 -32.359375 C 12.960938 -30.992188 12.101562 -29.421875 11.5 -27.640625 C 10.90625 -25.867188 10.609375 -23.992188 10.609375 -22.015625 C 10.609375 -19.898438 10.925781 -17.953125 11.5625 -16.171875 C 12.207031 -14.398438 13.117188 -12.851562 14.296875 -11.53125 C 15.472656 -10.207031 16.84375 -9.160156 18.40625 -8.390625 C 19.976562 -7.628906 21.71875 -7.25 23.625 -7.25 C 25.851562 -7.25 27.988281 -7.828125 30.03125 -8.984375 C 32.082031 -10.140625 34 -11.835938 35.78125 -14.078125 L 35.78125 -5.640625 C 32.09375 -1.671875 27.789062 0.3125 22.875 0.3125 Z M 35.15625 -16.375 L 26.28125 -16.375 L 26.28125 -22.625 L 42.21875 -22.625 L 42.21875 0 L 35.15625 0 Z M 35.15625 -16.375 "/></g></g></g><g fill="#ffffff" fill-opacity="1"><g transform="translate(347.613211, 416.72499)"><g><path d="M 3.78125 0 L 3.78125 -32.484375 L 12.09375 -32.484375 L 12.09375 0 Z M 3.78125 -37.015625 L 3.78125 -45.265625 L 12.09375 -45.265625 L 12.09375 -37.015625 Z M 3.78125 -37.015625 "/></g></g></g><g fill="#ffffff" fill-opacity="1"><g transform="translate(363.421197, 416.72499)"><g><path d="M 3.71875 -45.265625 L 12.03125 -45.265625 L 12.03125 -10.421875 C 12.03125 -8.929688 12.273438 -7.925781 12.765625 -7.40625 C 13.265625 -6.894531 13.945312 -6.640625 14.8125 -6.640625 C 15.476562 -6.640625 16.160156 -6.71875 16.859375 -6.875 C 17.566406 -7.039062 18.1875 -7.25 18.71875 -7.5 L 19.84375 -1.171875 C 18.726562 -0.640625 17.425781 -0.226562 15.9375 0.0625 C 14.445312 0.351562 13.101562 0.5 11.90625 0.5 C 9.300781 0.5 7.285156 -0.191406 5.859375 -1.578125 C 4.429688 -2.960938 3.71875 -4.9375 3.71875 -7.5 Z M 3.71875 -45.265625 "/></g></g></g><g fill="#ffffff" fill-opacity="1"><g transform="translate(383.072693, 416.72499)"><g><path d="M 22.265625 0.625 C 19.773438 0.625 17.554688 0.0664062 15.609375 -1.046875 C 13.671875 -2.171875 12.144531 -3.703125 11.03125 -5.640625 L 11.03125 0 L 3.78125 0 L 3.78125 -45.265625 L 12.09375 -45.265625 L 12.09375 -26.78125 C 13.25 -28.726562 14.765625 -30.257812 16.640625 -31.375 C 18.523438 -32.488281 20.726562 -33.046875 23.25 -33.046875 C 25.351562 -33.046875 27.273438 -32.597656 29.015625 -31.703125 C 30.753906 -30.816406 32.253906 -29.585938 33.515625 -28.015625 C 34.773438 -26.453125 35.742188 -24.65625 36.421875 -22.625 C 37.109375 -20.601562 37.453125 -18.4375 37.453125 -16.125 C 37.453125 -13.800781 37.066406 -11.628906 36.296875 -9.609375 C 35.535156 -7.585938 34.472656 -5.800781 33.109375 -4.25 C 31.742188 -2.695312 30.140625 -1.492188 28.296875 -0.640625 C 26.460938 0.203125 24.453125 0.625 22.265625 0.625 Z M 19.96875 -6.453125 C 21.289062 -6.453125 22.5 -6.707031 23.59375 -7.21875 C 24.6875 -7.738281 25.632812 -8.429688 26.4375 -9.296875 C 27.25 -10.171875 27.867188 -11.195312 28.296875 -12.375 C 28.734375 -13.550781 28.953125 -14.78125 28.953125 -16.0625 C 28.953125 -17.832031 28.585938 -19.472656 27.859375 -20.984375 C 27.140625 -22.492188 26.148438 -23.703125 24.890625 -24.609375 C 23.628906 -25.523438 22.148438 -25.984375 20.453125 -25.984375 C 19.253906 -25.984375 18.109375 -25.703125 17.015625 -25.140625 C 15.921875 -24.578125 14.945312 -23.820312 14.09375 -22.875 C 13.25 -21.925781 12.582031 -20.851562 12.09375 -19.65625 L 12.09375 -11.90625 C 12.34375 -11.070312 12.742188 -10.328125 13.296875 -9.671875 C 13.859375 -9.015625 14.507812 -8.445312 15.25 -7.96875 C 16 -7.488281 16.773438 -7.113281 17.578125 -6.84375 C 18.378906 -6.582031 19.175781 -6.453125 19.96875 -6.453125 Z M 19.96875 -6.453125 "/></g></g></g><g fill="#ffffff" fill-opacity="1"><g transform="translate(422.375685, 416.72499)"><g><path d="M 18.84375 0.625 C 16.238281 0.625 13.882812 0.179688 11.78125 -0.703125 C 9.675781 -1.597656 7.878906 -2.820312 6.390625 -4.375 C 4.898438 -5.925781 3.75 -7.703125 2.9375 -9.703125 C 2.132812 -11.703125 1.734375 -13.820312 1.734375 -16.0625 C 1.734375 -19.15625 2.425781 -21.984375 3.8125 -24.546875 C 5.195312 -27.109375 7.179688 -29.164062 9.765625 -30.71875 C 12.347656 -32.269531 15.394531 -33.046875 18.90625 -33.046875 C 22.457031 -33.046875 25.492188 -32.269531 28.015625 -30.71875 C 30.546875 -29.164062 32.484375 -27.117188 33.828125 -24.578125 C 35.171875 -22.035156 35.84375 -19.300781 35.84375 -16.375 C 35.84375 -15.875 35.820312 -15.363281 35.78125 -14.84375 C 35.738281 -14.332031 35.695312 -13.910156 35.65625 -13.578125 L 10.546875 -13.578125 C 10.703125 -11.921875 11.179688 -10.472656 11.984375 -9.234375 C 12.796875 -7.992188 13.832031 -7.050781 15.09375 -6.40625 C 16.351562 -5.769531 17.707031 -5.453125 19.15625 -5.453125 C 20.8125 -5.453125 22.375 -5.851562 23.84375 -6.65625 C 25.3125 -7.46875 26.3125 -8.535156 26.84375 -9.859375 L 33.96875 -7.875 C 33.1875 -6.21875 32.0625 -4.75 30.59375 -3.46875 C 29.125 -2.1875 27.394531 -1.179688 25.40625 -0.453125 C 23.425781 0.265625 21.238281 0.625 18.84375 0.625 Z M 10.359375 -18.84375 L 27.34375 -18.84375 C 27.175781 -20.5 26.707031 -21.9375 25.9375 -23.15625 C 25.175781 -24.375 24.175781 -25.320312 22.9375 -26 C 21.695312 -26.6875 20.3125 -27.03125 18.78125 -27.03125 C 17.289062 -27.03125 15.9375 -26.6875 14.71875 -26 C 13.5 -25.320312 12.507812 -24.375 11.75 -23.15625 C 10.988281 -21.9375 10.523438 -20.5 10.359375 -18.84375 Z M 10.359375 -18.84375 "/></g></g></g><g fill="#ffffff" fill-opacity="1"><g transform="translate(459.508958, 416.72499)"><g><path d="M 23.125 -25.296875 C 20.601562 -25.296875 18.347656 -24.804688 16.359375 -23.828125 C 14.378906 -22.859375 12.957031 -21.46875 12.09375 -19.65625 L 12.09375 0 L 3.78125 0 L 3.78125 -32.484375 L 11.40625 -32.484375 L 11.40625 -25.546875 C 12.5625 -27.773438 14.023438 -29.53125 15.796875 -30.8125 C 17.578125 -32.09375 19.460938 -32.796875 21.453125 -32.921875 C 21.910156 -32.921875 22.257812 -32.921875 22.5 -32.921875 C 22.75 -32.921875 22.957031 -32.898438 23.125 -32.859375 Z M 23.125 -25.296875 "/></g></g></g><g fill="#ffffff" fill-opacity="1"><g transform="translate(483.499904, 416.72499)"><g><path d="M 23.25 -1.671875 C 22.550781 -1.378906 21.703125 -1.046875 20.703125 -0.671875 C 19.710938 -0.304688 18.648438 -0.0078125 17.515625 0.21875 C 16.378906 0.445312 15.234375 0.5625 14.078125 0.5625 C 12.546875 0.5625 11.140625 0.296875 9.859375 -0.234375 C 8.578125 -0.773438 7.550781 -1.632812 6.78125 -2.8125 C 6.019531 -4 5.640625 -5.539062 5.640625 -7.4375 L 5.640625 -26.109375 L 1.359375 -26.109375 L 1.359375 -32.484375 L 5.640625 -32.484375 L 5.640625 -43.03125 L 13.953125 -43.03125 L 13.953125 -32.484375 L 20.765625 -32.484375 L 20.765625 -26.109375 L 13.953125 -26.109375 L 13.953125 -10.234375 C 13.992188 -9.117188 14.300781 -8.3125 14.875 -7.8125 C 15.457031 -7.3125 16.179688 -7.0625 17.046875 -7.0625 C 17.921875 -7.0625 18.769531 -7.207031 19.59375 -7.5 C 20.414062 -7.789062 21.078125 -8.039062 21.578125 -8.25 Z M 23.25 -1.671875 "/></g></g></g></svg>